<?xml version="1.0" encoding="utf-8"?>
<!-- Svg Vector Icons : http://www.onlinewebfonts.com/icon -->
<!DOCTYPE svg PUBLIC "-//W3C//DTD SVG 1.1//EN" "http://www.w3.org/Graphics/SVG/1.1/DTD/svg11.dtd">
<svg version="1.1" xmlns="http://www.w3.org/2000/svg" xmlns:xlink="http://www.w3.org/1999/xlink" x="0px" y="0px" viewBox="0 0 1000 1000" enable-background="new 0 0 1000 1000" xml:space="preserve">
<metadata> Svg Vector Icons : http://www.onlinewebfonts.com/icon </metadata>
<g><g><path d="M500,10C293.5,10,71.3,72.3,71.3,209.1v581.9C71.3,927.7,293.5,990,500,990c206.5,0,428.8-62.3,428.8-199.1V209.1C928.8,72.3,706.5,10,500,10z M867.5,790.9C867.5,867,703,928.8,500,928.8c-203,0-367.5-61.7-367.5-137.8V676.5c63.3,65.2,215.9,99.1,367.5,99.1s304.2-33.9,367.5-99.1V790.9z M867.5,607.2h-0.1c0,0.3,0.1,0.6,0.1,0.9C867.5,683.8,703,745,500,745c-203,0-367.5-61.3-367.5-136.9c0-0.3,0.1-0.6,0.1-0.9h-0.1V492.8c63.3,65.2,215.9,99.1,367.5,99.1s304.2-33.9,367.5-99.1V607.2z M867.5,423.4h-0.1c0,0.3,0.1,0.6,0.1,0.9C867.5,500,703,561.3,500,561.3c-203,0-367.5-61.3-367.5-136.9c0-0.3,0.1-0.6,0.1-0.9h-0.1V318.2c80.3,61.2,227.4,89.9,367.5,89.9s287.2-28.8,367.5-89.9V423.4z M500,346.9c-203,0-367.5-61.7-367.5-137.8C132.5,132.9,297,71.3,500,71.3c203,0,367.5,61.7,367.5,137.8C867.5,285.1,703,346.9,500,346.9z M745,806.3c0-16.9,13.7-30.6,30.6-30.6s30.6,13.7,30.6,30.6s-13.7,30.6-30.6,30.6S745,823.2,745,806.3z M745,622.5c0-16.9,13.7-30.6,30.6-30.6s30.6,13.7,30.6,30.6s-13.7,30.6-30.6,30.6S745,639.4,745,622.5z M745,438.8c0-16.9,13.7-30.6,30.6-30.6s30.6,13.7,30.6,30.6s-13.7,30.6-30.6,30.6S745,455.7,745,438.8z"/></g></g>
</svg>