<?xml version="1.0" encoding="UTF-8" standalone="no"?>
<!DOCTYPE svg PUBLIC "-//W3C//DTD SVG 1.1//EN" "http://www.w3.org/Graphics/SVG/1.1/DTD/svg11.dtd">
<svg width="100%" height="100%" viewBox="0 0 16 16" version="1.1" xmlns="http://www.w3.org/2000/svg" xmlns:xlink="http://www.w3.org/1999/xlink" xml:space="preserve" xmlns:serif="http://www.serif.com/" style="fill-rule:evenodd;clip-rule:evenodd;stroke-linejoin:round;stroke-miterlimit:1.41421;">
    <g transform="matrix(0.0163265,0,0,0.0163265,-0.164082,-0.163265)">
        <path d="M500,10C293.5,10 71.3,72.3 71.3,209.1L71.3,791C71.3,927.7 293.5,990 500,990C706.5,990 928.8,927.7 928.8,790.9L928.8,209.1C928.8,72.3 706.5,10 500,10ZM867.5,790.9C867.5,867 703,928.8 500,928.8C297,928.8 132.5,867.1 132.5,791L132.5,676.5C195.8,741.7 348.4,775.6 500,775.6C651.6,775.6 804.2,741.7 867.5,676.5L867.5,790.9ZM867.5,607.2L867.4,607.2C867.4,607.5 867.5,607.8 867.5,608.1C867.5,683.8 703,745 500,745C297,745 132.5,683.7 132.5,608.1C132.5,607.8 132.6,607.5 132.6,607.2L132.5,607.2L132.5,492.8C195.8,558 348.4,591.9 500,591.9C651.6,591.9 804.2,558 867.5,492.8L867.5,607.2ZM867.5,423.4L867.4,423.4C867.4,423.7 867.5,424 867.5,424.3C867.5,500 703,561.3 500,561.3C297,561.3 132.5,500 132.5,424.4C132.5,424.1 132.6,423.8 132.6,423.5L132.5,423.5L132.5,318.2C212.8,379.4 359.9,408.1 500,408.1C640.1,408.1 787.2,379.3 867.5,318.2L867.5,423.4ZM500,346.9C297,346.9 132.5,285.2 132.5,209.1C132.5,132.9 297,71.3 500,71.3C703,71.3 867.5,133 867.5,209.1C867.5,285.1 703,346.9 500,346.9ZM745,806.3C745,789.4 758.7,775.7 775.6,775.7C792.5,775.7 806.2,789.4 806.2,806.3C806.2,823.2 792.5,836.9 775.6,836.9C758.7,836.9 745,823.2 745,806.3ZM745,622.5C745,605.6 758.7,591.9 775.6,591.9C792.5,591.9 806.2,605.6 806.2,622.5C806.2,639.4 792.5,653.1 775.6,653.1C758.7,653.1 745,639.4 745,622.5ZM745,438.8C745,421.9 758.7,408.2 775.6,408.2C792.5,408.2 806.2,421.9 806.2,438.8C806.2,455.7 792.5,469.4 775.6,469.4C758.7,469.4 745,455.7 745,438.8Z" style="fill-rule:nonzero;"/>
    </g>
</svg>
